<svg width="20" height="20" viewBox="0 0 20 20" fill="none" xmlns="http://www.w3.org/2000/svg">
<g clip-path="url(#clip0_40_42)">
<path d="M17.27 16.47L14.16 13.36C15.12 12.2 15.69 10.71 15.69 9.09C15.69 5.38 12.67 2.37 8.97 2.37C5.27 2.37 2.25 5.39 2.25 9.09C2.25 12.79 5.27 15.81 8.97 15.81C10.52 15.81 11.94 15.28 13.08 14.4L16.21 17.53C16.36 17.68 16.55 17.75 16.74 17.75C16.93 17.75 17.12 17.68 17.27 17.53C17.56 17.24 17.56 16.76 17.27 16.47ZM3.75 9.09C3.75 6.21 6.09 3.87 8.97 3.87C11.85 3.87 14.19 6.21 14.19 9.09C14.19 11.97 11.85 14.31 8.97 14.31C6.09 14.31 3.75 11.97 3.75 9.09Z" fill="black"/>
</g>
<defs>
<clipPath id="clip0_40_42">
<rect width="20" height="20" fill="white"/>
</clipPath>
</defs>
</svg>
