<svg width="20" height="20" viewBox="0 0 20 20" fill="none" xmlns="http://www.w3.org/2000/svg">
<g clip-path="url(#clip0_453_31)">
<path d="M17 17.75H10C9.59 17.75 9.25 17.41 9.25 17C9.25 16.59 9.59 16.25 10 16.25H16.25V3.75H10C9.59 3.75 9.25 3.41 9.25 3C9.25 2.59 9.59 2.25 10 2.25H17C17.41 2.25 17.75 2.59 17.75 3V17C17.75 17.41 17.41 17.75 17 17.75Z" fill="black"/>
<path d="M12.69 9.71C12.65 9.62 12.6 9.54 12.53 9.47L9.53 6.47C9.24 6.18 8.76 6.18 8.47 6.47C8.18 6.76 8.18 7.24 8.47 7.53L10.19 9.25H3C2.59 9.25 2.25 9.59 2.25 10C2.25 10.41 2.59 10.75 3 10.75H10.19L8.47 12.47C8.18 12.76 8.18 13.24 8.47 13.53C8.62 13.68 8.81 13.75 9 13.75C9.19 13.75 9.38 13.68 9.53 13.53L12.53 10.53C12.6 10.46 12.65 10.38 12.69 10.29C12.77 10.11 12.77 9.9 12.69 9.72V9.71Z" fill="black"/>
</g>
<defs>
<clipPath id="clip0_453_31">
<rect width="20" height="20" fill="white"/>
</clipPath>
</defs>
</svg>
