<svg width="20" height="20" viewBox="0 0 20 20" fill="none" xmlns="http://www.w3.org/2000/svg">
<g clip-path="url(#clip0_77_36)">
<path d="M16.9 8.42C16.78 7.22 15.71 6.25 14.5 6.25H13.75V5.75C13.75 3.68 12.07 2 10 2C7.93003 2 6.25003 3.68 6.25003 5.75V6.25H5.50003C4.30003 6.25 3.22003 7.22 3.10003 8.42L2.40003 15.43C2.34003 16.04 2.53003 16.62 2.93003 17.06C3.33003 17.5 3.89003 17.75 4.50003 17.75H15.5C16.11 17.75 16.67 17.51 17.07 17.06C17.47 16.61 17.66 16.04 17.6 15.43L16.9 8.42ZM7.75003 5.75C7.75003 4.51 8.76003 3.5 10 3.5C11.24 3.5 12.25 4.51 12.25 5.75V6.25H7.75003V5.75ZM15.96 16.06C15.85 16.18 15.69 16.25 15.5 16.25H4.50003C4.32003 16.25 4.15003 16.18 4.04003 16.06C3.93003 15.94 3.88003 15.77 3.89003 15.58L4.59003 8.57C4.63003 8.13 5.06003 7.75 5.49003 7.75H6.24003V9.75C6.24003 10.16 6.58003 10.5 6.99003 10.5C7.40003 10.5 7.74003 10.16 7.74003 9.75V7.75H12.24V9.75C12.24 10.16 12.58 10.5 12.99 10.5C13.4 10.5 13.74 10.16 13.74 9.75V7.75H14.49C14.93 7.75 15.35 8.13 15.39 8.57L16.09 15.58C16.11 15.76 16.06 15.93 15.94 16.06H15.96Z" fill="black"/>
</g>
<defs>
<clipPath id="clip0_77_36">
<rect width="20" height="20" fill="white"/>
</clipPath>
</defs>
</svg>
