<svg width="61" height="18" viewBox="0 0 61 18" fill="none" xmlns="http://www.w3.org/2000/svg">
<path d="M49.9846 2.51879C49.9846 2.41499 50.0119 2.33212 50.0666 2.27021C50.1212 2.2092 50.1931 2.17551 50.2842 2.17004H53.2909C53.9137 2.17642 54.511 2.26201 55.082 2.42682C55.6538 2.59255 56.1883 2.82383 56.6873 3.12068C57.1863 3.41752 57.6398 3.77264 58.0477 4.18695C58.4556 4.60035 58.8035 5.06018 59.0903 5.56555C59.3771 6.07091 59.6011 6.61543 59.7614 7.19728C59.9216 7.77914 60.0018 8.38649 60.0018 9.01751C60.0018 9.64853 59.9216 10.2531 59.7614 10.8332C59.6011 11.4123 59.3744 11.9541 59.0812 12.4604C58.788 12.9657 58.4338 13.4247 58.0204 13.839C57.6061 14.2524 57.148 14.6047 56.6463 14.8961C56.1446 15.1875 55.6046 15.4142 55.0283 15.5763C54.451 15.7393 53.8509 15.8204 53.2281 15.8204H50.3297C50.2514 15.8204 50.174 15.7985 50.0984 15.7566C50.0229 15.7138 49.9855 15.6401 49.9855 15.5363V2.51879H49.9846ZM53.1998 14.826C53.7444 14.826 54.267 14.755 54.7687 14.6139C55.2705 14.4736 55.7358 14.2742 56.1646 14.0165C56.5935 13.7597 56.9851 13.4511 57.3384 13.0932C57.6917 12.7344 57.9931 12.3383 58.2407 11.9031C58.4884 11.4688 58.6805 11.0016 58.8162 10.5017C58.9519 10.0018 59.0202 9.48554 59.0202 8.95286C59.0202 8.11969 58.8663 7.34935 58.5576 6.64093C58.2489 5.93342 57.831 5.32243 57.3019 4.80705C56.7729 4.29258 56.1574 3.88919 55.4562 3.59872C54.7551 3.30734 54.0111 3.16165 53.2262 3.16165H50.9899V14.826H53.1989H53.1998Z" fill="black"/>
<path d="M42.8322 2.17004C42.9533 2.17004 43.0434 2.23652 43.1044 2.36946L48.7381 15.8267H47.7365L46.3788 12.7982H39.2008L37.9142 15.8267H36.8953L42.5654 2.38312C42.5654 2.38312 42.6464 2.17004 42.8331 2.17004H42.8322ZM42.8376 4.12867C42.8303 4.10955 42.8158 4.11775 42.814 4.13141L39.576 11.8621L46.0674 11.8457L42.8376 4.12867Z" fill="black"/>
<path d="M28.458 14.9162C28.4398 14.9644 28.3132 15.1693 28.2713 15.2148C28.2294 15.2604 28.1684 15.2831 28.0901 15.2831C27.9809 15.2831 27.8934 15.213 27.827 15.0746L22.8098 4.72236L21.3565 15.8286H20.3667L22.1587 2.51424C22.1705 2.42956 22.1978 2.35125 22.2406 2.2784C22.2825 2.20556 22.3581 2.17004 22.4674 2.17004C22.5766 2.17004 22.6577 2.22741 22.7123 2.34214L28.0947 13.3536L28.1794 13.1752L33.477 2.34214C33.5317 2.2265 33.6155 2.17004 33.7311 2.17004C33.834 2.17004 33.9068 2.20556 33.9487 2.2784C33.9906 2.35125 34.0179 2.42956 34.0307 2.51424L35.8855 15.8276H34.8775L33.3578 4.70506L28.4589 14.9153L28.458 14.9162Z" fill="black"/>
<path d="M6.12183 9.01659C6.12183 8.3892 6.20287 7.78459 6.36404 7.20274C6.52521 6.61997 6.75376 6.07727 7.04969 5.57191C7.34472 5.06746 7.70075 4.60762 8.11597 4.1924C8.53119 3.77809 8.99102 3.42297 9.49548 3.12613C9.99993 2.8311 10.5435 2.60073 11.1263 2.43683C11.7091 2.27201 12.3137 2.19006 12.9402 2.19006C13.5666 2.19006 14.1721 2.27201 14.7549 2.43683C15.3377 2.60164 15.8804 2.8311 16.3848 3.12613C16.8893 3.42206 17.3491 3.77718 17.7643 4.1924C18.1796 4.60762 18.5347 5.06746 18.8306 5.57191C19.1265 6.07636 19.356 6.61997 19.5208 7.20274C19.6856 7.7855 19.7676 8.39012 19.7676 9.01659C19.7676 9.64306 19.6856 10.2468 19.5208 10.8259C19.3569 11.4059 19.1265 11.9477 18.8306 12.4522C18.5356 12.9566 18.1796 13.4164 17.7643 13.8317C17.3491 14.2469 16.8893 14.602 16.3848 14.8979C15.8804 15.193 15.3368 15.4215 14.7549 15.5827C14.1721 15.7439 13.5675 15.8249 12.9402 15.8249C12.3128 15.8249 11.7082 15.7439 11.1263 15.5827C10.5435 15.4215 10.0008 15.193 9.49548 14.8979C8.99102 14.602 8.53119 14.2469 8.11597 13.8317C7.70075 13.4174 7.34563 12.9575 7.04969 12.4522C6.75376 11.9477 6.52521 11.405 6.36404 10.8259C6.20287 10.2468 6.12183 9.64306 6.12183 9.01659ZM7.11617 9.01659C7.11617 9.81697 7.26823 10.5709 7.57236 11.2784C7.8774 11.9869 8.29353 12.6033 8.82257 13.1287C9.35161 13.6541 9.96988 14.0693 10.6774 14.3735C11.3849 14.6785 12.1389 14.8296 12.9392 14.8296C13.471 14.8296 13.9864 14.7614 14.4845 14.6239C14.9826 14.4873 15.4479 14.2906 15.8776 14.0365C16.3074 13.7834 16.6999 13.4784 17.0559 13.1232C17.411 12.7681 17.7152 12.3748 17.9692 11.945C18.2233 11.5152 18.4199 11.0544 18.5602 10.5609C18.7004 10.0683 18.7705 9.55291 18.7705 9.01567C18.7705 8.21529 18.6166 7.46134 18.3089 6.75383C18.0011 6.04632 17.5831 5.42804 17.055 4.89991C16.526 4.37178 15.9077 3.95383 15.2002 3.64606C14.4927 3.3392 13.7387 3.1844 12.9383 3.1844C12.4011 3.1844 11.8857 3.25452 11.3931 3.39474C10.9005 3.53497 10.4379 3.73256 10.0045 3.9857C9.57105 4.23975 9.17678 4.54388 8.82166 4.89991C8.46654 5.25503 8.16332 5.6484 7.912 6.07727C7.66159 6.50797 7.46582 6.97236 7.3256 7.47044C7.18537 7.96943 7.11525 8.4839 7.11525 9.01567L7.11617 9.01659Z" fill="black"/>
<path d="M6.37033 15.8185H0.335999C0.233105 15.8185 0.151154 15.7912 0.0910567 15.7366C0.0300487 15.6829 0 15.6009 0 15.4926V2.17004H1.00618V14.8306H6.37033V15.8185Z" fill="black"/>
</svg>
